<svg xmlns="http://www.w3.org/2000/svg" viewBox="0 0 512 512" role="img" aria-label="SunnyVoyage">
  <defs>
    <linearGradient id="g1" x1="0" x2="1" y1="0" y2="1">
      <stop offset="0" stop-color="#FFB703"/>
      <stop offset="1" stop-color="#FB8500"/>
    </linearGradient>
    <linearGradient id="g2" x1="0" x2="0" y1="0" y2="1">
      <stop offset="0" stop-color="#2EC4B6"/>
      <stop offset="1" stop-color="#0EA5A4"/>
    </linearGradient>
  </defs>
  <!-- 太阳 -->
  <circle cx="168" cy="168" r="88" fill="url(#g1)"/>
  <!-- 光芒 -->
  <g stroke="#FDB813" stroke-width="16" stroke-linecap="round">
    <line x1="168" y1="48"  x2="168" y2="16"/>
    <line x1="168" y1="288" x2="168" y2="320"/>
    <line x1="48"  y1="168" x2="16"  y2="168"/>
    <line x1="288" y1="168" x2="320" y2="168"/>
    <line x1="80"  y1="80"  x2="56"  y2="56"/>
    <line x1="256" y1="80"  x2="280" y2="56"/>
    <line x1="80"  y1="256" x2="56"  y2="280"/>
    <line x1="256" y1="256" x2="280" y2="280"/>
  </g>
  <!-- 风帆 -->
  <path d="M360 96 C440 200, 440 312, 360 408 L240 408 C260 360, 260 184, 240 136 Z" fill="url(#g2)"/>
  <!-- 船体 -->
  <path d="M208 408 H420 C396 456, 300 488, 230 472 Z" fill="#0B7285"/>
  <!-- 罗盘刻度 -->
  <g transform="translate(420,92)" stroke="#1E293B" stroke-width="10">
    <circle cx="0" cy="0" r="44" fill="none"/>
    <path d="M0,-44 V-60 M0,44 V60 M44,0 H60 M-44,0 H-60"/>
  </g>
</svg>
